<?xml version="1.0" standalone="no"?>
<!DOCTYPE svg PUBLIC "-//W3C//DTD SVG 20010904//EN"
 "http://www.w3.org/TR/2001/REC-SVG-20010904/DTD/svg10.dtd">
<svg version="1.0" xmlns="http://www.w3.org/2000/svg"
 width="1024.000000pt" height="1024.000000pt" viewBox="0 0 1024.000000 1024.000000"
 preserveAspectRatio="xMidYMid meet">
<metadata>
Created by potrace 1.14, written by Peter Selinger 2001-2017
</metadata>
<g transform="translate(0.000000,1024.000000) scale(0.100000,-0.100000)"
fill="#000000" stroke="none">
<path d="M5555 9799 c-199 -170 -348 -244 -670 -333 -93 -26 -197 -57 -230
-68 -97 -32 -275 -123 -345 -176 -56 -43 -141 -139 -152 -173 -2 -6 -44 -20
-92 -30 -105 -22 -181 -55 -256 -111 -64 -49 -180 -157 -180 -170 0 -4 56 -8
125 -8 l125 0 -88 -87 c-93 -92 -150 -170 -202 -271 -17 -34 -47 -80 -66 -103
-19 -23 -40 -51 -46 -62 -9 -17 -8 -19 8 -13 25 10 166 37 170 33 2 -2 -8 -30
-21 -63 -14 -32 -25 -67 -25 -76 0 -40 -11 -48 -64 -48 -28 0 -69 -9 -93 -19
-23 -11 -50 -17 -61 -14 -12 3 -38 -8 -68 -30 -27 -19 -60 -40 -73 -47 l-24
-12 7 63 c18 163 72 357 141 505 38 81 47 94 68 94 33 0 70 31 116 98 103 149
325 339 551 472 62 36 146 89 188 117 164 112 273 163 592 278 236 85 264 97
250 105 -6 4 2 7 19 7 18 0 49 14 81 37 29 21 49 33 46 28 -3 -6 2 -8 14 -5
11 3 17 10 13 16 -4 6 -1 7 6 3 7 -5 26 -2 43 5 27 11 29 14 12 20 -29 12
-273 10 -382 -2 -207 -23 -595 -122 -546 -139 12 -5 6 -7 -21 -7 -37 1 -94
-20 -200 -75 -22 -11 -66 -33 -98 -49 -36 -18 -55 -34 -51 -41 4 -7 3 -8 -5
-4 -7 4 -34 -7 -62 -25 -51 -32 -51 -32 -27 -46 17 -11 18 -13 3 -8 -11 4 -25
9 -30 11 -14 6 -121 -75 -117 -88 1 -5 -2 -7 -7 -4 -27 17 -273 -225 -420
-414 -16 -22 -29 -29 -42 -25 -31 10 -63 -72 -55 -140 5 -47 2 -61 -38 -146
-52 -111 -108 -285 -135 -419 -39 -190 -50 -440 -20 -440 5 0 9 19 9 43 0 51
22 87 54 87 33 0 76 -23 76 -40 0 -13 -1 -13 -11 0 -8 11 -12 12 -15 3 -4 -8
-13 -9 -30 -3 -15 6 -24 6 -25 0 -1 -6 -2 -14 -3 -19 0 -6 -6 -15 -13 -22 -6
-6 -9 -18 -6 -27 4 -10 2 -13 -5 -8 -7 4 -12 3 -12 -2 0 -12 31 -38 39 -34 3
2 7 -2 9 -10 3 -11 2 -11 -6 0 -5 8 -13 14 -18 14 -5 0 -15 3 -22 6 -33 12
-35 -16 -13 -193 13 -97 21 -178 19 -180 -2 -1 -49 -7 -106 -12 -112 -9 -121
-6 -126 41 -1 14 -5 29 -9 32 -3 3 -3 12 0 20 12 31 -19 11 -33 -21 -21 -51
-18 -185 11 -406 32 -242 57 -366 85 -421 64 -128 220 -281 297 -293 77 -12
80 -14 96 -55 12 -33 24 -44 63 -61 27 -11 62 -19 79 -17 21 1 41 -6 60 -20
37 -29 66 -36 113 -26 20 4 56 6 79 5 67 -4 147 24 177 62 14 17 26 26 26 18
0 -22 111 -182 121 -175 5 3 9 -1 9 -9 0 -18 70 -93 70 -75 0 7 6 4 12 -7 18
-33 50 -65 60 -59 4 3 11 -2 14 -10 10 -26 193 -156 194 -138 0 4 7 -2 15 -12
8 -11 15 -17 15 -13 0 3 39 -16 86 -44 48 -27 89 -47 92 -44 3 3 13 -2 23 -11
9 -8 23 -16 31 -18 7 -1 34 -12 60 -24 34 -17 54 -37 79 -77 18 -29 41 -56 52
-59 13 -3 18 -10 13 -22 -4 -11 -2 -15 8 -11 11 4 13 1 9 -10 -5 -12 -1 -14
15 -8 13 4 22 2 22 -4 0 -6 -5 -11 -11 -11 -5 0 -8 -4 -5 -9 3 -5 14 -7 25 -4
23 6 84 -24 76 -37 -4 -6 2 -10 12 -10 17 -1 56 -24 53 -32 -1 -1 2 -11 6 -21
5 -14 13 -17 33 -12 20 4 23 3 11 -5 -12 -9 -9 -11 15 -9 46 2 75 -10 68 -29
-5 -12 -1 -14 15 -10 12 4 24 3 27 -2 7 -12 79 5 116 28 19 11 50 37 69 57 29
30 32 38 20 46 -12 8 -10 9 6 4 18 -4 27 4 54 45 18 27 36 50 40 50 8 0 31 57
29 74 0 5 6 13 15 18 9 5 16 16 16 24 0 8 4 13 9 10 5 -3 11 1 15 9 3 8 12 15
19 15 8 0 20 7 27 15 7 9 15 13 18 10 3 -3 16 2 29 10 13 9 23 13 23 9 0 -4 7
-1 15 6 8 7 15 10 15 6 0 -3 21 7 48 22 26 15 61 34 77 42 17 8 39 23 49 33
14 11 22 14 27 6 5 -8 8 -8 13 0 4 6 40 35 79 65 40 29 82 63 93 74 12 12 24
19 27 16 2 -3 16 9 30 26 14 16 29 30 34 30 4 1 26 24 48 52 22 27 48 57 58
66 9 9 17 20 17 25 0 5 19 38 42 73 l42 63 16 -27 c29 -47 48 -56 139 -64 47
-4 103 -10 124 -14 36 -6 38 -8 31 -33 -3 -14 -10 -42 -14 -61 -9 -49 -25 -76
-88 -150 -99 -116 -238 -237 -337 -295 -42 -25 -45 -26 -70 -9 -38 25 -91 13
-230 -50 -131 -60 -175 -93 -191 -148 -10 -31 -9 -41 9 -69 l20 -34 -42 40
c-41 39 -42 39 -36 13 9 -34 0 -35 -59 -7 -30 14 -50 31 -61 55 -9 19 -17 34
-18 34 -2 0 -3 -33 -2 -72 0 -59 -5 -84 -27 -128 -33 -70 -59 -98 -129 -143
-95 -61 -176 -82 -309 -81 -63 0 -135 6 -160 13 -76 22 -140 53 -140 68 0 8
-4 11 -10 8 -6 -3 -10 -2 -10 3 0 5 -12 17 -26 27 -18 12 -24 13 -19 4 14 -28
-37 38 -61 79 -31 50 -43 151 -25 203 11 32 11 32 -9 14 -11 -10 -20 -23 -20
-29 -1 -24 -30 -48 -81 -66 -62 -23 -62 -23 -55 -11 8 13 -4 42 -15 35 -5 -3
-9 -16 -9 -29 0 -19 -9 -29 -37 -41 -21 -9 -48 -17 -60 -17 -11 -1 -19 -6 -16
-11 4 -5 -7 -6 -23 -2 -16 4 -24 3 -17 -1 8 -6 -11 -17 -50 -32 -134 -52 -338
-132 -369 -145 -208 -91 -279 -128 -312 -161 -23 -23 -29 -25 -43 -13 -15 12
-15 11 -5 -9 10 -17 8 -25 -8 -45 -11 -13 -19 -17 -20 -10 0 29 -20 -2 -20
-32 0 -21 -8 -40 -21 -52 -22 -19 -22 -19 -15 6 6 21 5 22 -4 7 -6 -9 -9 -25
-6 -35 3 -10 -6 -35 -23 -60 -25 -38 -29 -41 -34 -23 -3 12 -1 19 4 16 4 -3
15 8 24 24 18 35 18 41 4 41 -5 0 -8 -4 -5 -9 3 -4 -1 -17 -9 -27 -14 -18 -15
-18 -12 6 1 14 6 31 10 38 5 6 4 12 0 12 -15 0 -33 -39 -26 -56 5 -13 2 -16
-10 -11 -14 5 -14 2 -1 -30 9 -19 13 -37 10 -40 -2 -2 -7 6 -11 18 -8 23 -8
23 -31 -6 -13 -17 -24 -24 -24 -17 0 6 9 21 20 32 21 21 25 30 12 30 -11 0
-57 -80 -57 -100 -1 -8 -6 -14 -13 -13 -6 2 -30 -24 -52 -56 -22 -33 -44 -63
-50 -66 -5 -3 -15 -15 -21 -27 -8 -14 -8 -18 0 -14 7 4 9 1 5 -8 -3 -8 -12
-12 -20 -9 -10 4 -13 -2 -10 -26 2 -17 -1 -28 -6 -25 -5 3 -7 13 -4 21 3 8 1
11 -4 8 -6 -3 -10 -13 -10 -21 0 -8 -4 -14 -10 -14 -5 0 -12 -11 -16 -25 -4
-14 -9 -24 -12 -21 -3 3 -12 -2 -21 -12 -9 -10 -23 -21 -32 -24 -9 -4 -133 -9
-275 -13 -143 -3 -482 -12 -754 -20 -272 -8 -774 -21 -1115 -30 -341 -9 -649
-20 -685 -25 -55 -8 -70 -14 -97 -44 -63 -68 -66 -48 129 -861 129 -540 247
-1044 358 -1530 117 -511 117 -513 140 -546 25 -34 68 -59 104 -59 31 0 39
-23 34 -96 -3 -45 -5 -49 -31 -52 l-27 -3 0 -120 c0 -80 4 -119 11 -119 12 0
672 -50 1379 -105 245 -19 540 -41 655 -50 116 -8 325 -24 465 -35 520 -40
809 -60 955 -66 164 -7 201 -3 885 102 162 25 311 48 331 51 26 4 56 -2 100
-20 35 -14 105 -33 154 -42 50 -9 143 -29 207 -46 123 -31 173 -36 183 -19 4
6 17 3 35 -10 52 -37 174 -89 280 -119 148 -42 308 -61 523 -61 257 0 440 29
641 100 l89 32 136 -18 c182 -23 378 -23 506 0 118 21 530 115 665 152 131 35
216 77 236 116 14 27 14 36 0 102 -30 134 -122 274 -239 362 -76 57 -218 126
-312 150 -99 26 -331 26 -438 1 -105 -25 -92 -33 14 -10 109 23 276 23 384 -1
87 -20 225 -78 225 -95 0 -6 -3 -10 -7 -10 -28 4 -41 -7 -61 -52 -13 -28 -36
-62 -51 -77 -15 -15 -31 -36 -35 -47 -5 -14 -9 -16 -15 -7 -10 17 -36 -31 -28
-52 8 -21 -38 -53 -56 -39 -6 6 -63 13 -126 17 -63 3 -117 9 -120 14 -8 12
-89 49 -133 60 -27 7 -38 7 -42 -1 -2 -7 -2 4 1 23 6 30 4 33 -8 23 -13 -10
-15 -6 -14 28 1 40 2 41 75 77 54 27 75 42 75 56 0 46 -62 42 -124 -9 -14 -12
-42 -30 -61 -41 -19 -10 -41 -25 -49 -32 -7 -7 -23 -12 -35 -10 -16 2 -23 13
-30 50 -8 45 -10 47 -35 41 -38 -9 -205 -108 -286 -168 -103 -78 -309 -292
-324 -337 -11 -33 -10 -42 13 -90 29 -61 78 -115 120 -133 30 -13 30 -13 -50
-38 -121 -38 -252 -57 -439 -63 -261 -9 -494 25 -680 100 -76 31 -175 81 -175
90 0 1 14 1 30 -2 29 -4 30 -3 30 34 0 50 -5 56 -69 89 -61 32 -57 37 44 49
33 4 132 19 220 32 128 21 167 31 197 51 44 30 67 75 70 135 l1 43 4 -37 4
-38 414 0 413 0 55 60 c77 83 142 176 177 254 97 212 86 475 -28 701 -74 149
-168 261 -275 329 -64 41 -63 41 -70 22 -4 -11 -1 -13 10 -9 11 4 14 3 9 -6
-6 -8 -2 -11 10 -9 19 3 55 -53 37 -59 -5 -2 -8 -26 -6 -53 4 -56 -13 -134
-27 -125 -6 4 -10 -1 -10 -9 0 -9 -7 -16 -15 -16 -18 0 -65 -47 -65 -65 0 -8
-6 -15 -14 -15 -7 0 -33 -18 -56 -40 -36 -34 -49 -40 -86 -40 -24 0 -44 -4
-44 -9 0 -5 -9 -13 -20 -16 -11 -3 -20 -12 -20 -19 0 -13 -82 -36 -131 -36
-18 0 -29 -5 -29 -13 0 -11 -29 -15 -117 -20 -66 -4 -119 -11 -121 -17 -2 -6
-63 -10 -163 -10 -99 0 -159 -4 -159 -10 0 -19 -41 -10 -64 15 -21 22 -31 25
-95 25 -40 0 -82 5 -93 11 -12 6 -18 7 -14 1 3 -6 -9 -12 -29 -14 -38 -4 -48
13 -17 32 13 8 11 9 -13 3 -16 -3 -36 -12 -43 -20 -7 -7 -19 -13 -26 -13 -22
0 -85 -37 -78 -46 4 -5 3 -6 -2 -2 -5 4 -24 -2 -43 -13 -19 -12 -36 -19 -38
-17 -10 10 359 236 467 286 110 52 259 109 383 146 65 20 121 39 124 43 3 3
-25 3 -63 -1 -80 -8 -273 -57 -340 -87 -26 -11 -52 -19 -59 -16 -19 6 81 74
188 127 55 27 94 50 87 50 -35 0 -170 -34 -234 -60 -39 -16 -76 -26 -81 -23
-6 3 -7 1 -3 -5 4 -7 1 -12 -8 -12 -9 0 -16 -4 -16 -10 0 -5 -7 -6 -17 -3 -11
4 -14 3 -9 -5 4 -7 2 -13 -3 -13 -6 -1 -15 -2 -21 -3 -5 0 -19 -9 -31 -19 -11
-10 -24 -16 -27 -13 -3 4 3 13 14 20 10 8 19 20 19 27 0 7 14 17 31 23 31 11
97 54 102 68 2 4 10 4 18 1 8 -3 14 0 14 5 0 6 10 14 23 18 12 4 25 11 28 15
3 5 17 10 31 11 15 1 25 5 23 9 -3 3 24 17 58 30 58 23 62 27 65 59 5 53 -17
148 -49 211 l-28 57 -3 435 c-2 240 -2 434 0 433 1 -2 32 -63 67 -137 88 -183
77 -169 135 -169 40 0 48 3 44 15 -4 8 -3 15 0 15 8 0 50 -44 75 -79 16 -21
19 -22 24 -7 4 9 3 15 -2 12 -5 -3 -11 1 -15 9 -3 9 0 15 9 15 17 0 20 16 5
25 -8 5 -7 11 0 20 7 8 8 20 4 27 -18 29 -3 73 38 115 23 24 44 40 47 38 2 -3
-12 -20 -32 -39 -20 -19 -37 -37 -37 -41 0 -4 24 14 53 41 98 91 153 133 230
177 26 16 47 32 47 37 0 6 6 10 13 10 6 0 26 7 42 16 45 24 95 27 96 6 0 -14
2 -13 9 3 5 11 9 14 9 8 1 -7 5 -13 10 -13 5 0 7 10 4 23 -5 17 -3 20 7 10 15
-14 35 8 116 127 44 65 46 71 34 99 -7 17 -16 31 -21 31 -4 0 -10 8 -13 18 -4
10 -16 29 -29 43 -12 13 -22 28 -22 34 0 5 -4 10 -10 10 -20 0 -36 17 -31 32
3 8 -4 27 -16 43 -20 28 -23 29 -40 13 -13 -11 -18 -12 -18 -3 0 10 -3 10 -15
0 -13 -11 -14 -10 -9 4 4 10 12 15 20 12 7 -3 18 3 26 12 12 15 11 16 -4 4
-14 -11 -17 -10 -23 7 -3 11 -10 20 -15 18 -5 -1 -18 15 -29 36 -15 29 -16 37
-5 33 8 -3 14 -1 14 3 0 5 20 21 43 35 24 14 100 81 168 150 l123 126 31 -29
c92 -88 209 -89 323 -4 31 24 34 24 105 12 l73 -12 18 -44 c36 -87 126 -145
227 -145 l56 0 12 -40 c7 -22 26 -108 42 -191 16 -84 39 -171 50 -194 23 -48
67 -89 118 -110 39 -17 138 -22 196 -10 28 5 36 5 25 -2 -11 -8 -11 -11 -2
-11 7 0 15 7 18 15 3 8 21 24 39 35 39 24 79 81 97 137 10 33 18 43 38 45 21
3 16 8 -35 33 -33 17 -67 30 -76 31 -28 2 -79 44 -85 70 -10 38 5 93 28 105
13 7 73 10 173 8 85 -2 156 -1 159 2 13 12 -192 40 -314 43 -54 2 -81 105 -38
145 12 11 44 27 72 35 49 14 240 52 301 60 17 2 -13 1 -65 -1 -52 -2 -108 -8
-125 -13 -55 -16 -105 -20 -105 -9 0 6 -6 9 -12 6 -17 -5 -48 31 -49 57 -3 43
3 62 29 90 25 27 176 106 202 106 15 0 8 196 -9 250 -6 19 -35 68 -65 107 -39
52 -56 83 -58 110 -2 29 -10 42 -34 58 -41 28 -176 58 -239 53 -45 -3 -52 -7
-70 -38 -11 -19 -39 -53 -62 -75 l-42 -42 -233 59 c-128 32 -259 63 -290 69
-57 11 -58 13 -103 82 -35 56 -45 80 -45 114 0 38 -4 45 -37 67 -46 30 -148
56 -224 56 -59 0 -73 -9 -112 -72 -10 -15 -36 -37 -58 -49 -70 -35 -127 -97
-186 -203 -56 -99 -83 -157 -218 -466 -69 -157 -84 -186 -86 -160 -1 8 -1 18
0 23 0 4 -3 7 -8 7 -5 0 -7 -18 -4 -40 3 -22 1 -40 -4 -40 -17 0 -82 128 -77
152 4 21 4 21 -4 3 -8 -18 -13 -13 -42 38 -50 88 -121 161 -193 196 -71 35
-274 119 -462 193 -71 28 -139 57 -150 65 -11 7 -25 13 -32 13 -6 0 -24 5 -40
11 l-28 11 60 29 c196 98 255 139 255 179 0 23 8 33 48 56 139 81 309 237 422
387 36 48 71 87 78 87 11 0 152 202 152 219 0 4 13 12 29 17 20 8 32 22 41 50
15 46 25 54 64 54 108 0 319 206 365 356 22 68 74 394 91 564 9 98 3 191 -15
221 -13 21 -30 7 -33 -27 -4 -59 -16 -73 -63 -69 -67 6 -179 26 -179 33 0 4 9
67 20 140 11 74 20 151 20 173 0 38 -29 104 -56 125 -7 6 -11 14 -7 18 4 4 1
11 -7 16 -25 15 3 35 29 21 21 -12 32 -39 35 -86 0 -14 4 -25 9 -25 12 0 8
174 -8 292 -27 192 -98 436 -178 605 -21 46 -23 58 -14 92 17 64 -22 161 -59
147 -8 -3 -42 31 -89 89 -42 52 -89 105 -105 118 -16 14 -26 28 -23 31 4 3 1
6 -5 6 -6 0 -35 25 -64 55 -28 30 -58 55 -65 55 -7 0 -17 9 -23 20 -6 11 -15
20 -21 20 -5 0 -24 14 -42 30 -18 17 -38 28 -45 25 -7 -3 -10 -1 -7 5 7 12
-41 44 -54 35 -6 -3 -8 0 -5 8 6 16 -22 31 -39 20 -7 -3 -9 -3 -5 2 10 11 -20
38 -33 29 -7 -4 -9 -3 -5 4 3 6 -3 13 -14 17 -11 3 -20 11 -20 16 0 5 -4 9 -9
9 -5 0 -37 16 -71 35 -34 19 -67 32 -73 28 -7 -3 -9 -3 -5 2 9 9 -61 47 -73
39 -5 -3 -9 -1 -9 4 0 11 -58 37 -66 30 -3 -3 9 -11 27 -17 18 -6 30 -14 27
-17 -9 -8 -68 25 -65 37 2 10 -51 32 -188 75 -126 40 -123 38 -133 86 -8 42
-9 42 -19 18 -6 -14 -19 -46 -28 -73 -26 -73 -75 -139 -113 -152 -18 -6 -30
-13 -27 -17 4 -4 -4 -5 -17 -2 -12 2 -17 1 -10 -2 19 -9 -95 -66 -207 -103
-52 -17 -96 -30 -98 -28 -2 2 56 46 128 98 136 97 224 174 254 221 l16 27 -45
6 c-50 8 -70 25 -63 52 3 10 8 28 12 41 10 33 -5 27 -70 -29z m-717 -86 c-10
-2 -26 -2 -35 0 -10 3 -2 5 17 5 19 0 27 -2 18 -5z m397 -3 c-3 -5 -11 -10
-16 -10 -6 0 -7 5 -4 10 3 6 11 10 16 10 6 0 7 -4 4 -10z m-465 -15 c11 -13
10 -14 -4 -9 -9 3 -16 10 -16 15 0 13 6 11 20 -6z m67 -1 c-3 -3 -12 -4 -19
-1 -8 3 -5 6 6 6 11 1 17 -2 13 -5z m-297 -97 c0 -11 -41 2 -58 18 -11 10 -7
10 22 1 20 -6 36 -15 36 -19z m67 -23 c-3 -3 -12 -4 -19 -1 -8 3 -5 6 6 6 11
1 17 -2 13 -5z m-277 -14 c0 -5 -2 -10 -4 -10 -3 0 -8 5 -11 10 -3 6 -1 10 4
10 6 0 11 -4 11 -10z m-40 -10 c0 -5 -5 -10 -11 -10 -5 0 -7 5 -4 10 3 6 8 10
11 10 2 0 4 -4 4 -10z m260 -10 c-20 -13 -33 -13 -25 0 3 6 14 10 23 10 15 0
15 -2 2 -10z m-311 -19 c-13 -11 -26 -18 -28 -16 -6 7 24 34 38 35 7 0 3 -8
-10 -19z m111 4 c0 -8 -4 -15 -10 -15 -5 0 -7 7 -4 15 4 8 8 15 10 15 2 0 4
-7 4 -15z m-53 -1 c-3 -3 -12 -4 -19 -1 -8 3 -5 6 6 6 11 1 17 -2 13 -5z m53
-34 c0 -5 -4 -10 -10 -10 -5 0 -10 5 -10 10 0 6 5 10 10 10 6 0 10 -4 10 -10z
m-151 -3 c-2 -1 -14 -11 -26 -21 -13 -11 -23 -16 -23 -13 0 10 31 37 42 37 6
0 9 -1 7 -3z m171 -17 c-8 -5 -24 -9 -35 -9 -16 1 -16 2 5 9 35 11 48 11 30 0z
m1997 -22 c-7 -4 -16 -8 -22 -8 -5 0 -3 5 5 10 8 5 11 10 7 10 -5 0 -5 5 -1
11 4 8 9 7 15 -2 5 -8 3 -17 -4 -21z m-2161 -13 c17 -16 39 -21 30 -6 -4 5 3
7 14 4 12 -3 19 -6 18 -8 -16 -10 -108 -54 -108 -51 0 2 14 13 32 24 l32 21
-27 6 c-15 4 -24 11 -21 16 7 12 13 11 30 -6z m-26 -19 c0 -3 -4 -8 -10 -11
-5 -3 -10 -1 -10 4 0 6 5 11 10 11 6 0 10 -2 10 -4z m2325 -44 c-3 -3 -11 0
-18 7 -9 10 -8 11 6 5 10 -3 15 -9 12 -12z m-503 -38 c192 -67 401 -174 552
-283 124 -91 218 -171 224 -193 2 -11 8 -15 11 -10 3 5 14 -1 24 -14 14 -19
15 -22 2 -18 -8 3 -15 10 -15 16 0 5 -4 7 -9 4 -5 -4 -20 6 -33 22 -12 15 -27
28 -31 29 -5 0 -27 16 -50 34 -243 196 -585 374 -779 405 -35 6 -48 21 -31 37
11 12 28 8 135 -29z m-1984 12 c-7 -8 -15 -12 -17 -11 -5 6 10 25 20 25 5 0 4
-6 -3 -14z m95 7 c3 -5 -5 -15 -17 -24 -20 -16 -22 -16 -22 1 0 11 5 16 15 12
9 -3 12 -1 7 6 -4 7 -3 12 3 12 5 0 12 -3 14 -7z m-199 -28 c-7 -16 -24 -21
-24 -6 0 8 7 13 27 20 1 1 0 -6 -3 -14z m136 5 c0 -5 -2 -10 -4 -10 -3 0 -8 5
-11 10 -3 6 -1 10 4 10 6 0 11 -4 11 -10z m-68 -58 c-6 -2 -9 -8 -6 -14 4 -6
-2 -6 -14 1 -28 15 -32 14 -25 -6 5 -14 3 -15 -7 -6 -18 17 -5 30 32 30 18 0
27 -2 20 -5z m-175 -69 c-10 -10 -17 -11 -21 -4 -4 6 0 11 8 11 9 0 16 5 16
10 0 6 -8 10 -17 10 -15 0 -16 2 -3 10 22 14 37 -18 17 -37z m133 23 c0 -3 -4
-8 -10 -11 -5 -3 -10 -1 -10 4 0 6 5 11 10 11 6 0 10 -2 10 -4z m-85 -36 c3
-6 -1 -7 -9 -4 -18 7 -21 14 -7 14 6 0 13 -4 16 -10z m12 -26 c-3 -3 -12 -4
-19 -1 -8 3 -5 6 6 6 11 1 17 -2 13 -5z m-27 -18 c0 -2 -7 -7 -16 -10 -8 -3
-12 -2 -9 4 6 10 25 14 25 6z m3085 -90 c7 3 15 1 19 -4 8 -13 -33 -8 -44 6
-7 8 -7 9 1 3 6 -5 17 -7 24 -5z m-1537 -47 c141 -33 272 -134 323 -248 20
-45 10 -58 -11 -13 -7 16 -14 22 -17 14 -3 -7 0 -19 6 -26 9 -11 7 -15 -6 -20
-15 -6 -15 -8 -3 -16 8 -5 12 -11 10 -13 -3 -2 -35 10 -71 27 -36 17 -87 40
-113 50 -34 14 -43 22 -34 29 9 6 8 7 -5 3 -14 -5 -230 73 -245 88 -1 2 42 1
96 -2 67 -3 101 -1 106 7 9 13 -71 92 -116 114 l-33 17 33 0 c18 0 54 -5 80
-11z m-943 -16 c-11 -3 -40 -14 -63 -25 -46 -20 -70 -18 -31 3 31 16 70 27 94
27 l20 0 -20 -5z m1442 -49 c-3 -3 -12 -4 -19 -1 -8 3 -5 6 6 6 11 1 17 -2 13
-5z m123 -25 l43 -13 -34 -12 c-43 -16 -76 -17 -84 -4 -3 6 4 14 16 18 14 5
18 11 11 16 -6 3 -13 2 -17 -4 -3 -5 -14 -10 -23 -10 -15 1 -14 3 3 16 11 8
25 12 31 10 7 -3 31 -10 54 -17z m46 -44 c-11 -8 -25 -15 -30 -14 -6 0 -5 3 2
6 6 2 10 9 6 14 -3 5 5 9 18 9 22 -1 22 -1 4 -15z m77 -14 c15 -8 27 -18 27
-23 0 -5 -15 1 -32 13 -53 36 -52 38 5 10z m-119 -11 c25 -13 29 -12 41 3 12
17 15 16 50 -8 21 -14 33 -25 26 -25 -6 0 -22 7 -35 15 -21 14 -25 14 -40 0
-14 -15 -19 -14 -53 10 -40 28 -37 29 11 5z m93 -53 c-2 -6 6 -20 17 -30 21
-19 21 -19 -4 -5 -65 39 -69 42 -58 55 12 15 51 -2 45 -20z m-1576 1 c3 -5 10
-8 15 -6 19 6 95 -35 90 -49 -3 -8 -2 -12 3 -8 13 7 69 -41 86 -75 14 -27 14
-28 -8 -22 -12 3 -34 13 -49 24 -14 10 -30 18 -36 18 -15 0 -32 25 -24 36 4 5
3 6 -2 2 -15 -12 -22 -10 -55 17 -20 17 -28 31 -24 42 5 13 2 15 -12 10 -19
-8 -48 10 -39 25 6 10 46 0 55 -14z m2431 -131 c52 -70 77 -90 100 -82 19 7
33 -5 57 -53 67 -133 143 -392 156 -535 l8 -79 -40 21 c-22 11 -54 32 -71 46
-18 15 -36 24 -41 21 -5 -4 -33 3 -63 15 -36 14 -67 20 -99 17 l-45 -5 -27 86
c-14 47 -29 95 -33 106 -8 20 -8 20 20 2 15 -10 31 -16 34 -12 9 9 -33 125
-88 240 -30 63 -74 132 -118 186 l-70 86 107 5 c123 5 142 11 111 38 -11 9
-20 21 -20 26 0 15 71 -60 122 -129z m-1235 6 c-3 -10 -5 -4 -5 12 0 17 2 24
5 18 2 -7 2 -21 0 -30z m342 -288 c28 -42 59 -107 43 -90 -5 6 -33 46 -62 90
-29 44 -60 89 -69 101 -9 11 1 2 23 -20 21 -23 50 -59 65 -81z m-1609 23 c95
-65 348 -217 437 -262 89 -44 332 -153 385 -172 22 -8 44 -12 47 -9 10 11 0
129 -19 215 -10 48 -32 118 -49 155 -29 63 -41 105 -23 79 4 -6 15 -13 25 -17
9 -3 17 -12 17 -19 0 -7 11 -14 25 -14 13 -1 46 -15 72 -31 26 -16 69 -38 95
-48 25 -11 45 -22 43 -26 -2 -3 2 -6 8 -6 7 0 65 -21 128 -46 64 -26 165 -60
225 -76 60 -16 100 -30 90 -30 -30 -1 -15 -8 34 -15 25 -3 40 -3 33 1 -6 5 27
6 73 4 l84 -3 1 28 c0 28 1 28 11 6 9 -19 7 -26 -13 -48 l-23 -25 29 -24 c38
-31 43 -31 51 0 13 51 -24 184 -75 270 -15 25 -16 36 -8 45 9 10 8 12 -5 7 -9
-3 -18 0 -21 6 -3 7 6 12 24 13 17 1 26 -3 22 -9 -3 -6 -1 -7 6 -3 6 4 18 0
27 -8 8 -9 13 -16 9 -16 -3 0 -3 -5 0 -10 5 -8 11 -8 19 -1 16 14 120 -55 112
-74 -3 -8 0 -12 8 -9 14 5 93 -155 125 -256 62 -196 91 -413 91 -691 0 -217
-9 -323 -51 -584 -32 -202 -55 -306 -88 -395 l-20 -55 0 43 c-1 63 -17 51 -26
-20 -7 -62 -7 -63 -20 -33 -12 30 -12 30 -20 -28 l-8 -59 -17 27 c-15 22 -18
24 -24 10 -3 -9 -6 -27 -6 -40 0 -33 -18 -41 -29 -13 -7 21 -9 18 -16 -19 -4
-24 -11 -43 -15 -43 -5 0 -11 -10 -13 -22 -3 -16 -5 -12 -6 11 -1 44 -8 37
-37 -41 l-23 -63 0 48 c-1 58 -17 62 -26 6 -4 -23 -10 -38 -14 -33 -12 18 -31
14 -31 -7 0 -11 -4 -17 -10 -14 -5 3 -10 -2 -11 -12 0 -16 -1 -16 -8 1 -7 18
-9 16 -21 -15 l-13 -34 -6 29 c-6 29 -6 29 -31 -20 -16 -33 -26 -43 -28 -31
-4 18 -22 24 -22 6 0 -6 -10 -23 -21 -37 l-22 -27 6 40 c6 37 5 38 -8 21 -8
-11 -15 -26 -15 -33 0 -7 -4 -13 -10 -13 -5 0 -10 -6 -10 -14 0 -8 -5 -18 -11
-22 -8 -4 -9 3 -4 26 10 45 -8 32 -45 -33 -28 -49 -29 -50 -28 -19 1 47 -7 47
-27 2 -21 -47 -32 -51 -37 -12 -3 23 -5 21 -18 -22 -14 -46 -15 -47 -20 -20
l-5 29 -28 -45 -27 -45 0 38 c0 47 -15 41 -25 -9 l-7 -37 -17 26 c-16 25 -17
25 -29 7 -7 -11 -12 -27 -12 -35 0 -24 -18 -18 -22 8 -3 21 -4 20 -23 -10
l-19 -33 -12 28 c-12 28 -11 29 -30 -25 -6 -16 -7 -16 -14 2 -7 19 -8 19 -15
2 -7 -17 -8 -17 -22 3 -17 25 -33 18 -33 -16 0 -30 -14 -31 -27 -2 -10 23 -10
22 -26 -7 l-15 -30 -11 28 c-14 35 -41 36 -41 1 0 -26 -1 -26 -24 -10 -18 11
-26 12 -29 3 -3 -6 -11 4 -18 23 l-14 35 -5 -35 -6 -35 -17 40 c-20 43 -37 36
-30 -13 3 -24 2 -23 -17 11 -24 44 -45 50 -35 10 9 -36 -6 -21 -22 20 -9 27
-12 28 -12 10 -1 -20 -20 -34 -21 -15 -1 4 -12 21 -26 37 l-25 30 6 -40 7 -40
-20 30 c-10 17 -27 37 -37 45 -17 14 -18 13 -12 -17 9 -45 0 -41 -21 10 l-17
42 -6 -40 -5 -40 -11 45 c-7 31 -11 37 -12 20 -1 -22 -4 -19 -21 18 -19 43
-36 57 -27 23 2 -10 1 -25 -4 -32 -5 -9 -9 -9 -9 -3 0 7 -16 29 -35 50 l-35
39 0 -30 c-1 -29 -2 -28 -25 17 -39 74 -56 76 -30 3 7 -20 6 -20 -12 1 -10 11
-26 31 -36 45 l-17 24 6 -32 c8 -48 -3 -40 -32 22 -33 69 -49 82 -40 31 10
-51 -1 -45 -29 17 -21 46 -24 49 -24 23 -1 -34 -12 -28 -27 17 -14 40 -32 46
-36 10 -3 -24 -6 -19 -21 29 -23 76 -40 86 -31 19 4 -28 4 -51 1 -51 -3 0 -14
25 -23 55 -18 56 -29 60 -37 15 -2 -14 -5 1 -6 32 -1 64 -21 92 -21 31 0 -28
-3 -34 -10 -23 -5 8 -10 27 -10 42 0 46 -20 43 -21 -4 l-1 -43 -10 50 c-18 99
-19 100 -29 84 -5 -7 -9 -25 -10 -39 0 -14 -9 8 -20 49 -22 84 -29 98 -29 53
0 -17 -4 -34 -10 -37 -6 -4 -10 13 -11 42 0 26 -4 57 -8 68 -8 17 -10 16 -18
-15 -9 -34 -10 -32 -31 60 -20 89 -64 369 -94 595 -21 160 -18 605 6 735 35
199 105 378 191 490 70 91 251 250 285 250 3 0 39 -23 80 -52z m1678 -153 c-3
-3 -9 2 -12 12 -6 14 -5 15 5 6 7 -7 10 -15 7 -18z m30 -60 c-3 -3 -9 2 -12
12 -6 14 -5 15 5 6 7 -7 10 -15 7 -18z m1142 -385 c0 -5 -12 -10 -26 -10 -14
0 -23 4 -19 10 3 6 15 10 26 10 10 0 19 -4 19 -10z m-4107 -47 c-3 -7 -8 -13
-12 -13 -4 0 -8 6 -8 13 0 8 6 14 13 14 7 0 10 -6 7 -14z m4057 -28 c0 -19 -4
-35 -8 -35 -5 0 -9 -12 -10 -27 0 -16 -5 -39 -11 -53 -9 -21 -9 -17 -5 20 3
25 8 61 11 80 4 19 6 38 5 43 -1 4 3 7 8 7 6 0 10 -16 10 -35z m-4060 -5 c0
-5 -7 -7 -15 -4 -8 4 -15 8 -15 10 0 2 7 4 15 4 8 0 15 -4 15 -10z m30 -8 c0
-13 -29 -48 -30 -35 0 6 -6 13 -12 16 -7 2 -5 3 5 2 9 -2 17 3 17 11 0 8 5 14
10 14 6 0 10 -4 10 -8z m3030 -2219 c0 -5 -21 -17 -48 -27 -26 -11 -100 -46
-165 -78 -65 -32 -120 -58 -122 -58 -3 0 -2 7 1 15 4 9 45 34 93 56 47 22 95
45 105 51 21 11 115 46 129 47 4 1 7 -2 7 -6z m1590 -39 c75 -10 140 -46 140
-77 0 -6 -7 -2 -15 10 -22 31 -90 54 -178 61 -78 5 -79 5 -103 -24 -16 -20
-23 -24 -24 -13 0 8 9 25 21 37 21 24 21 24 159 6z m-30 -34 c0 -5 -2 -10 -4
-10 -3 0 -8 5 -11 10 -3 6 -1 10 4 10 6 0 11 -4 11 -10z m18 -55 c118 -28 173
-72 227 -179 19 -38 25 -64 24 -110 l-2 -61 -8 62 c-9 72 -23 101 -82 174 -53
64 -98 84 -232 101 -88 11 -92 11 -146 -14 -77 -35 -160 -119 -187 -188 -11
-30 -21 -47 -21 -38 -1 24 37 108 66 146 27 36 108 92 158 110 43 15 130 14
203 -3z m1082 -196 c67 -14 180 -50 180 -56 0 -3 -6 -3 -14 0 -7 3 -67 17
-132 32 l-118 26 -18 -23 c-19 -25 -24 -18 -8 13 12 21 41 24 110 8z m-3550
-14 c-7 -9 -15 -13 -17 -11 -7 7 7 26 19 26 6 0 6 -6 -2 -15z m3015 -66 c138
-34 252 -63 254 -65 18 -17 -39 -7 -258 47 -138 34 -259 68 -268 76 -17 13
-17 14 2 9 11 -3 133 -33 270 -67z m-653 0 c14 -21 19 -22 37 -11 28 16 40 15
16 -2 -10 -7 -16 -20 -13 -28 5 -12 1 -13 -27 -4 -23 7 -31 15 -28 27 3 10 -5
33 -17 51 -14 21 -15 26 -3 12 10 -11 25 -31 35 -45z m-109 -5 c-6 -17 -44
-15 -51 4 -2 8 7 12 27 12 23 0 29 -4 24 -16z m1397 -12 c106 -37 208 -163
216 -270 l4 -47 -13 45 c-22 76 -49 123 -102 176 -64 66 -136 94 -238 94 -149
-1 -240 -78 -271 -230 -3 -14 -3 -1 -1 29 14 173 207 270 405 203z m-1160 8
c-20 -13 -40 -13 -40 0 0 6 12 10 28 10 21 0 24 -2 12 -10z m-485 -22 c-14
-47 -153 -348 -161 -348 -2 0 3 17 12 38 9 20 28 66 44 102 44 104 102 230
107 230 2 0 1 -10 -2 -22z m355 -68 c0 -17 -3 -19 -19 -8 -21 13 -19 28 5 28
8 0 14 -9 14 -20z m510 -31 c0 -5 -13 0 -30 13 -16 12 -30 23 -30 25 0 2 14
-3 30 -12 17 -9 30 -20 30 -26z m-568 9 c-7 -7 -12 -8 -12 -2 0 14 12 26 19
19 2 -3 -1 -11 -7 -17z m1282 -4 c7 -18 -19 -48 -34 -39 -11 7 -13 38 -3 48
11 12 31 7 37 -9z m-450 -53 c3 -5 -1 -12 -10 -15 -25 -10 -34 -7 -34 9 0 16
35 21 44 6z m-639 -68 c-45 -45 -57 -78 -53 -148 2 -35 6 -61 10 -59 14 9 26
-31 13 -43 -10 -9 -17 -3 -34 28 -12 21 -19 43 -16 49 3 5 1 10 -4 10 -17 0
-13 88 5 126 17 35 39 58 28 30 -9 -24 10 -19 36 9 13 14 28 25 33 25 5 0 -3
-12 -18 -27z m198 -10 c27 -25 22 -59 -12 -73 -41 -17 -81 -9 -103 21 -16 21
-17 30 -8 53 10 27 12 28 58 21 26 -4 55 -14 65 -22z m684 -5 c-3 -7 -5 -2 -5
12 0 14 2 19 5 13 2 -7 2 -19 0 -25z m361 -25 c-10 -2 -28 -2 -40 0 -13 2 -5
4 17 4 22 1 32 -1 23 -4z m-953 -13 c3 -5 1 -10 -4 -10 -6 0 -11 5 -11 10 0 6
2 10 4 10 3 0 8 -4 11 -10z m31 -67 c22 -74 -9 -148 -76 -187 -41 -24 -135
-24 -186 0 -46 22 -37 28 19 13 90 -25 195 21 212 91 10 43 13 120 4 114 -5
-3 -9 0 -9 6 0 27 25 0 36 -37z m454 -13 c11 -11 20 -31 20 -44 0 -50 -94 -77
-124 -35 -13 20 -13 25 1 53 9 17 21 34 27 38 20 14 56 8 76 -12z m-117 -5
c-3 -9 -8 -14 -10 -11 -3 3 -2 9 2 15 9 16 15 13 8 -4z m398 -15 c10 -6 19
-18 19 -27 0 -15 -2 -15 -13 1 -11 15 -17 17 -35 7 -16 -8 -22 -8 -22 -1 0 6
-4 8 -10 5 -11 -7 -14 8 -3 18 10 10 42 8 64 -3z m-491 -9 c0 -5 -7 -22 -15
-37 -26 -50 -14 -128 26 -170 27 -29 17 -50 -15 -29 -62 41 -78 175 -27 227
18 19 31 23 31 9z m358 -109 c5 -59 -22 -119 -70 -155 -37 -27 -72 -42 -63
-27 3 6 2 10 -4 10 -5 0 -11 -4 -13 -10 -1 -5 -13 -7 -25 -4 -30 8 -19 24 17
24 16 0 32 5 35 11 4 6 14 8 23 4 9 -3 13 -3 9 1 -8 8 22 46 32 39 4 -2 7 4 8
13 1 9 9 38 18 64 9 28 13 59 9 75 -5 22 -4 26 6 16 7 -6 15 -34 18 -61z
m-907 -5 c-6 -8 -7 -18 -3 -22 4 -5 1 -5 -6 -1 -10 6 -10 11 -1 22 6 8 14 14
16 14 3 0 0 -6 -6 -13z m-4411 -97 c0 -5 -5 -10 -11 -10 -5 0 -7 5 -4 10 3 6
8 10 11 10 2 0 4 -4 4 -10z m1874 -16 c33 -9 86 -28 116 -42 60 -30 165 -128
193 -182 18 -33 17 -33 -20 10 -94 110 -188 168 -315 194 -97 20 -131 20 -221
0 -104 -24 -181 -67 -266 -148 -71 -68 -73 -69 -43 -25 61 90 166 164 273 193
73 20 207 20 283 0z m-1914 -4 c0 -5 -5 -10 -11 -10 -5 0 -7 5 -4 10 3 6 8 10
11 10 2 0 4 -4 4 -10z m-60 -38 c0 -4 -9 -13 -20 -20 -19 -12 -20 -11 -8 8 13
20 28 27 28 12z m5225 -32 c13 -6 15 -9 5 -9 -8 0 -22 4 -30 9 -18 12 -2 12
25 0z m-5265 -24 c0 -3 -4 -8 -10 -11 -5 -3 -10 -1 -10 4 0 6 5 11 10 11 6 0
10 -2 10 -4z m30 -53 c0 -5 -10 -19 -21 -33 l-21 -25 18 33 c18 32 24 38 24
25z m-50 -24 c0 -6 -4 -7 -10 -4 -5 3 -10 11 -10 16 0 6 5 7 10 4 6 -3 10 -11
10 -16z m2090 -85 c74 -35 149 -103 179 -162 12 -23 26 -72 33 -110 10 -59 9
-79 -5 -138 -10 -38 -33 -95 -53 -128 -34 -58 -35 -59 -16 -80 45 -51 109
-178 131 -263 18 -66 32 -74 117 -72 47 1 79 -3 89 -11 16 -14 35 -71 35 -110
0 -16 12 -35 37 -56 29 -24 36 -37 35 -64 -1 -41 -22 -60 -111 -95 -35 -14
-88 -42 -119 -62 -88 -56 -167 -93 -199 -93 -38 0 -72 25 -89 65 l-13 33 -68
-20 c-84 -23 -243 -25 -322 -4 l-55 15 -45 -30 c-57 -37 -54 -38 -280 47 -215
80 -229 88 -238 122 -10 36 -6 51 24 86 22 27 24 36 19 86 -11 97 38 219 140
351 43 57 134 142 143 134 2 -3 -32 -42 -75 -88 -87 -92 -131 -159 -169 -256
-25 -64 -25 -64 -2 -44 14 13 41 22 75 25 49 5 59 10 108 59 30 29 54 58 54
65 0 21 69 149 96 178 22 23 25 32 15 45 -45 63 -70 157 -71 266 0 93 24 156
85 224 82 90 171 122 335 118 105 -2 121 -5 180 -33z m-1336 -83 c20 -12 42
-39 54 -64 17 -37 52 -229 121 -667 11 -69 38 -237 60 -375 22 -137 65 -405
96 -595 30 -190 60 -372 65 -405 15 -85 85 -518 117 -720 14 -93 27 -171 28
-172 3 -5 397 -30 860 -53 110 -6 272 -15 360 -20 88 -6 291 -17 450 -25 506
-26 503 -26 517 -43 9 -11 10 -14 1 -9 -7 4 -81 -4 -165 -18 -84 -15 -195 -33
-246 -41 -51 -8 -182 -32 -290 -53 -221 -44 -332 -63 -507 -87 -66 -9 -163
-22 -215 -30 -224 -32 -672 -85 -677 -80 -11 11 2 15 117 30 63 9 163 22 223
31 59 8 153 21 210 29 56 8 185 26 287 41 102 14 261 36 353 49 93 13 171 27
175 30 3 4 0 12 -7 19 -9 9 -70 12 -234 11 -122 -1 -202 2 -177 6 36 6 39 7
15 9 -16 1 -113 8 -215 16 -102 8 -207 14 -235 13 -62 -1 184 -26 280 -28 39
-1 79 -6 90 -11 32 -15 -164 -4 -725 41 -69 6 -146 10 -172 10 -88 0 -82 -16
-133 320 -20 129 -65 408 -100 620 -36 212 -77 457 -91 545 -14 88 -36 228
-49 310 -14 83 -25 157 -26 165 0 8 -5 4 -10 -10 -6 -18 -7 -13 -3 18 6 46
-14 172 -28 172 -4 0 -9 15 -9 33 -1 17 -3 24 -6 14 -9 -34 -23 -5 -23 49 0
36 -4 53 -10 49 -6 -4 -8 -15 -5 -26 4 -10 1 -27 -5 -36 -10 -15 -10 -14 -6 9
4 16 1 32 -7 40 -7 7 -19 51 -25 98 -7 47 -15 96 -17 110 -18 84 -63 346 -70
405 -9 89 -24 136 -52 174 -25 32 -89 68 -101 57 -3 -3 0 -6 6 -6 17 0 72 -50
88 -81 8 -16 17 -60 19 -97 2 -37 2 -56 -1 -42 -22 107 -71 183 -127 198 -33
8 -389 2 -1157 -17 -386 -11 -1231 -30 -1940 -46 -135 -3 -310 -8 -390 -11
l-145 -6 -34 -37 -34 -36 6 39 c8 47 31 84 60 95 29 11 533 27 1902 61 619 15
1423 40 1600 50 208 11 266 7 309 -19z m3334 -146 c-3 -3 -9 2 -12 12 -6 14
-5 15 5 6 7 -7 10 -15 7 -18z m108 -62 c-3 -4 -6 -1 -6 6 0 7 -5 9 -10 6 -7
-4 -3 -19 10 -41 12 -19 20 -34 17 -34 -8 0 -39 51 -42 69 -1 9 -8 15 -14 13
-9 -2 -9 3 -1 18 11 21 12 21 32 -5 11 -14 18 -29 14 -32z m-62 11 c3 -8 2
-12 -4 -9 -6 3 -10 10 -10 16 0 14 7 11 14 -7z m-1667 -414 c85 -105 144 -231
142 -304 0 -26 -3 -22 -14 21 -34 126 -115 261 -214 358 -28 27 -51 53 -51 58
0 16 74 -56 137 -133z m1638 30 c-3 -5 -12 -10 -18 -10 -7 0 -6 4 3 10 19 12
23 12 15 0z m-161 -104 c-3 -8 -13 -17 -22 -21 -13 -5 -13 -2 3 15 21 24 26
25 19 6z m-64 -40 c0 -2 -8 -10 -17 -17 -16 -13 -17 -12 -4 4 13 16 21 21 21
13z m-260 -236 c-6 -11 -16 -20 -22 -20 -6 0 -3 9 7 20 10 11 20 20 22 20 2 0
-1 -9 -7 -20z m-2653 -302 c-3 -8 -6 -5 -6 6 -1 11 2 17 5 13 3 -3 4 -12 1
-19z m-2209 -98 c61 -60 112 -114 112 -121 0 -16 -42 -89 -51 -89 -4 0 -36 16
-69 36 -34 20 -65 33 -68 29 -4 -4 -7 -57 -7 -118 0 -112 24 -227 47 -227 6 0
37 21 70 46 33 25 63 42 67 37 4 -4 19 -24 33 -43 l26 -36 -44 -69 c-23 -39
-43 -74 -43 -80 -2 -28 143 -95 203 -95 18 0 38 -6 44 -13 6 -7 22 -51 35 -97
l25 -85 -28 -3 c-42 -5 -156 25 -229 60 -49 23 -89 54 -156 122 -99 100 -142
166 -183 278 -24 67 -27 86 -27 218 0 126 3 152 22 199 28 68 84 161 98 161 5
0 61 -50 123 -110z m357 -124 c84 -64 119 -164 91 -260 -42 -145 -214 -169
-309 -44 -33 42 -59 139 -51 188 9 55 44 110 84 132 52 28 136 21 185 -16z
m288 -361 c170 -79 162 -66 105 -185 -32 -65 -124 -170 -150 -170 -13 0 -82
87 -101 128 -9 19 -6 27 22 56 l32 33 -61 67 c-33 36 -60 72 -60 79 0 6 9 27
20 45 15 24 24 31 33 24 7 -5 79 -40 160 -77z m3528 -348 c-10 -9 -11 -8 -5 6
3 10 9 15 12 12 3 -3 0 -11 -7 -18z m2125 -832 c-27 -19 -52 -32 -55 -29 -10
10 61 64 84 64 15 0 7 -9 -29 -35z m-90 -47 c4 -6 -3 -19 -17 -30 -13 -10 -29
-22 -36 -28 -8 -7 -21 -6 -40 1 l-28 12 31 8 c17 5 39 18 49 29 21 23 31 25
41 8z m-186 -55 c-19 -8 -57 -33 -85 -56 l-50 -40 39 41 c40 42 89 72 116 71
8 0 -1 -7 -20 -16z m186 -3 c0 -12 -5 -19 -13 -16 -7 3 -17 -10 -24 -31 -6
-20 -44 -69 -86 -114 -57 -59 -93 -88 -151 -116 -63 -32 -86 -51 -145 -120
-70 -83 -99 -104 -57 -41 46 66 116 130 180 163 78 40 235 188 246 231 4 16
17 36 28 46 12 9 21 17 21 18 1 0 1 -9 1 -20z m-3597 -56 c2 -2 2 -6 -1 -9 -9
-9 -88 7 -82 17 5 8 72 1 83 -8z m416 -31 c66 -8 251 -17 410 -21 270 -5 286
-7 225 -18 -131 -26 -285 -28 -405 -6 -60 11 -171 26 -245 32 -74 7 -187 18
-250 25 l-115 13 130 -5 c72 -2 184 -11 250 -20z m-445 -3 c20 -6 21 -8 5 -8
-11 0 -29 3 -40 8 -25 11 1 11 35 0z m133 -17 c-7 -2 -21 -2 -30 0 -10 3 -4 5
12 5 17 0 24 -2 18 -5z m1075 0 c-10 -2 -28 -2 -40 0 -13 2 -5 4 17 4 22 1 32
-1 23 -4z m3180 0 c-10 -2 -28 -2 -40 0 -13 2 -5 4 17 4 22 1 32 -1 23 -4z
m-3956 -22 c84 -11 179 -22 210 -26 32 -3 60 -11 63 -16 8 -13 -152 -12 -195
2 -19 5 -100 19 -179 29 -79 10 -146 21 -149 24 -11 12 101 6 250 -13z m-392
-6 c47 -8 104 -15 127 -15 37 0 170 -19 278 -39 l40 -8 -40 -11 c-59 -17 -94
-15 -181 14 -44 14 -117 30 -164 35 -141 15 -170 20 -170 30 0 12 10 12 110
-6z m4250 10 c0 -2 -21 -16 -47 -29 -27 -13 -66 -36 -88 -51 -29 -20 -35 -21
-20 -6 11 11 49 36 85 56 70 37 70 37 70 30z m-4066 -84 c32 -12 5 -20 -98
-27 -81 -6 -96 -5 -96 8 0 8 3 18 7 21 9 9 163 7 187 -2z m1169 -53 c51 -29
30 -30 -27 -1 -42 22 -136 29 -147 12 -6 -10 1 -19 24 -32 l32 -18 -49 5 c-27
4 -100 6 -163 6 -124 0 -144 13 -36 24 38 4 109 15 158 24 110 21 141 18 208
-20z m-3135 25 c-10 -2 -28 -2 -40 0 -13 2 -5 4 17 4 22 1 32 -1 23 -4z m125
-10 c-13 -2 -35 -2 -50 0 -16 2 -5 4 22 4 28 0 40 -2 28 -4z m160 -10 c-7 -2
-19 -2 -25 0 -7 3 -2 5 12 5 14 0 19 -2 13 -5z m125 -10 c-10 -2 -28 -2 -40 0
-13 2 -5 4 17 4 22 1 32 -1 23 -4z m165 -10 c-13 -2 -33 -2 -45 0 -13 2 -3 4
22 4 25 0 35 -2 23 -4z m175 -10 c-15 -2 -42 -2 -60 0 -18 2 -6 4 27 4 33 0
48 -2 33 -4z m259 -19 c-3 -3 -12 -4 -19 -1 -8 3 -5 6 6 6 11 1 17 -2 13 -5z
m156 -11 c-7 -2 -21 -2 -30 0 -10 3 -4 5 12 5 17 0 24 -2 18 -5z m150 -10
c-13 -2 -33 -2 -45 0 -13 2 -3 4 22 4 25 0 35 -2 23 -4z m218 -11 c-63 -1
-118 1 -122 5 -5 4 47 6 114 3 l122 -5 -114 -3z m1717 -33 c61 -18 112 -36
112 -40 0 -5 -21 -14 -47 -22 -61 -17 -130 -2 -125 28 3 12 -1 16 -12 12 -8
-3 -18 -2 -21 3 -3 4 1 11 7 13 7 3 2 6 -11 6 -13 1 -21 4 -17 8 3 4 -4 13
-16 21 -28 16 -27 16 130 -29z"/>
<path d="M5576 8756 c10 -8 21 -12 24 -10 5 6 -21 24 -34 24 -6 0 -1 -6 10
-14z"/>
<path d="M5650 8736 c0 -26 13 -35 25 -16 3 6 -1 17 -9 26 -15 14 -16 13 -16
-10z"/>
<path d="M5970 8900 c-21 -7 -21 -8 -5 -9 11 0 27 4 35 9 18 11 5 11 -30 0z"/>
<path d="M6075 8800 c4 -6 11 -8 16 -5 14 9 11 15 -7 15 -8 0 -12 -5 -9 -10z"/>
<path d="M4485 8800 c3 -5 11 -10 16 -10 6 0 7 5 4 10 -3 6 -11 10 -16 10 -6
0 -7 -4 -4 -10z"/>
<path d="M4650 8702 c0 -10 60 -56 65 -50 2 2 -11 16 -30 31 -19 15 -35 24
-35 19z"/>
<path d="M5788 8123 c6 -2 18 -2 25 0 6 3 1 5 -13 5 -14 0 -19 -2 -12 -5z"/>
<path d="M5868 8103 c7 -3 16 -2 19 1 4 3 -2 6 -13 5 -11 0 -14 -3 -6 -6z"/>
<path d="M4330 7886 c-69 -19 -121 -47 -162 -88 -42 -42 -99 -144 -76 -135
218 83 396 87 573 12 122 -52 129 -52 166 -16 26 27 30 37 25 64 -13 66 -98
123 -234 158 -86 22 -222 24 -292 5z"/>
<path d="M5810 7876 c-104 -31 -144 -52 -185 -97 -43 -48 -46 -89 -10 -124 13
-14 31 -25 39 -25 9 0 60 18 113 39 174 70 338 78 485 26 40 -14 84 -29 96
-32 l24 -6 -22 44 c-71 140 -183 199 -375 198 -63 0 -112 -7 -165 -23z"/>
<path d="M4434 7499 c-147 -19 -275 -132 -318 -278 -19 -65 -21 -179 -4 -253
l12 -53 7 75 c8 89 31 185 58 238 32 63 105 136 168 167 50 25 70 29 143 29
73 1 93 -3 140 -26 73 -36 142 -108 190 -199 42 -80 46 -79 29 3 -43 202 -219
325 -425 297z"/>
<path d="M5880 7499 c-142 -28 -255 -140 -295 -296 -21 -81 -18 -96 9 -38 105
227 305 319 497 227 133 -64 196 -171 235 -407 l7 -40 8 40 c20 100 3 231 -39
308 -54 100 -173 184 -292 207 -60 11 -67 11 -130 -1z"/>
<path d="M4498 7320 c-150 -45 -235 -262 -183 -463 64 -245 260 -324 403 -162
67 76 86 138 86 280 0 102 -3 129 -23 179 -52 130 -171 200 -283 166z m183
-80 c25 -14 49 -62 49 -100 0 -75 -94 -107 -151 -51 -77 77 7 201 102 151z"/>
<path d="M5795 7305 c-102 -49 -163 -196 -152 -364 12 -194 113 -331 241 -331
145 1 249 134 263 336 18 268 -162 451 -352 359z m80 -81 c48 -52 25 -143 -39
-160 -42 -10 -70 0 -93 35 -32 47 -30 86 6 122 39 39 92 40 126 3z"/>
<path d="M5150 6474 c0 -8 67 -34 88 -34 10 0 26 6 36 13 15 11 12 12 -23 9
-22 -2 -54 1 -71 6 -16 6 -30 9 -30 6z"/>
<path d="M5557 6254 c-3 -3 -171 -7 -374 -7 l-368 -2 1 -53 c2 -76 58 -186
125 -246 136 -122 322 -149 480 -70 105 52 202 188 215 300 6 46 4 53 -17 68
-24 16 -51 21 -62 10z m-17 -36 c0 -13 -78 -48 -142 -63 -74 -17 -250 -20
-333 -4 -65 12 -141 44 -148 62 -3 9 73 12 309 12 173 0 314 -3 314 -7z"/>
<path d="M7795 4820 c-3 -5 -1 -10 4 -10 6 0 11 5 11 10 0 6 -2 10 -4 10 -3 0
-8 -4 -11 -10z"/>
<path d="M7815 4620 c3 -5 8 -10 11 -10 2 0 4 5 4 10 0 6 -5 10 -11 10 -5 0
-7 -4 -4 -10z"/>
<path d="M8410 4481 c0 -5 7 -12 16 -15 24 -9 28 -7 14 9 -14 17 -30 20 -30 6z"/>
<path d="M4984 3942 c-48 -33 -59 -123 -20 -168 18 -22 32 -28 60 -27 43 1 59
13 76 53 26 64 -16 150 -73 150 -18 0 -37 -4 -43 -8z m79 -34 c14 -21 2 -48
-22 -48 -30 0 -45 34 -25 55 18 18 33 16 47 -7z"/>
<path d="M5354 3935 c-84 -36 -57 -185 33 -185 51 0 83 37 83 94 0 75 -55 118
-116 91z m64 -42 c-2 -20 -9 -28 -23 -28 -14 0 -21 8 -23 28 -3 23 0 27 23 27
23 0 26 -4 23 -27z"/>
<path d="M5168 3623 c7 -3 16 -2 19 1 4 3 -2 6 -13 5 -11 0 -14 -3 -6 -6z"/>
<path d="M5218 3623 c12 -2 32 -2 45 0 12 2 2 4 -23 4 -25 0 -35 -2 -22 -4z"/>
<path d="M4132 3480 c0 -14 2 -19 5 -12 2 6 2 18 0 25 -3 6 -5 1 -5 -13z"/>
<path d="M4141 3424 c0 -11 3 -14 6 -6 3 7 2 16 -1 19 -3 4 -6 -2 -5 -13z"/>
<path d="M4171 3284 c0 -11 3 -14 6 -6 3 7 2 16 -1 19 -3 4 -6 -2 -5 -13z"/>
<path d="M4212 3230 c0 -19 2 -27 5 -17 2 9 2 25 0 35 -3 9 -5 1 -5 -18z"/>
<path d="M6108 573 c6 -2 18 -2 25 0 6 3 1 5 -13 5 -14 0 -19 -2 -12 -5z"/>
<path d="M5637 9554 c-26 -20 -47 -38 -47 -40 0 -8 60 29 80 51 33 35 21 31
-33 -11z"/>
<path d="M1265 6651 c-11 -18 2 -28 72 -56 92 -36 335 -146 350 -157 7 -5 17
-26 24 -46 14 -47 22 -54 42 -46 12 4 15 13 11 33 -13 50 -43 98 -66 104 -17
4 -277 112 -414 173 -7 3 -15 1 -19 -5z"/>
<path d="M1745 6290 c3 -5 12 -7 19 -4 8 3 16 -2 19 -13 4 -14 5 -14 6 5 1 17
-4 22 -25 22 -14 0 -23 -4 -19 -10z"/>
<path d="M2445 6021 c-108 -6 -141 -14 -130 -31 3 -5 -40 -11 -97 -12 l-103
-3 0 -72 c0 -39 -3 -69 -7 -66 -5 2 -8 -8 -9 -24 l-1 -28 -13 30 c-11 25 -13
26 -17 10 -4 -16 -7 -12 -15 15 -6 19 -12 27 -12 18 -1 -26 -21 -22 -21 5 -1
37 -42 77 -86 83 -22 3 -34 2 -28 -3 51 -38 42 -155 -16 -196 -18 -13 -12 -15
66 -24 76 -10 89 -14 119 -43 41 -40 50 -81 28 -127 -24 -51 -51 -64 -179 -80
-64 -8 -133 -21 -153 -29 -36 -13 -35 -13 19 -6 30 4 124 7 208 7 149 0 154
-1 173 -24 13 -16 19 -39 19 -75 0 -46 -4 -56 -31 -80 -17 -15 -37 -25 -45
-22 -8 3 -12 2 -9 -3 3 -5 -3 -12 -12 -14 -10 -3 1 -5 24 -6 33 -1 46 -6 59
-26 25 -39 10 -100 -36 -147 -21 -21 -42 -38 -47 -38 -4 0 3 9 17 20 14 11 20
20 14 20 -6 0 -17 -7 -24 -15 -7 -8 -16 -12 -21 -9 -5 3 -6 -1 -3 -9 3 -9 -6
-18 -28 -27 -18 -6 -49 -21 -69 -31 -38 -20 -65 -26 -39 -9 8 5 11 10 5 10 -5
0 -17 -5 -25 -10 -8 -5 -11 -10 -5 -10 5 0 -7 -11 -27 -25 -33 -22 -36 -28
-32 -62 3 -28 1 -34 -6 -23 -8 12 -9 9 -8 -12 1 -16 6 -28 10 -28 4 0 8 -11 8
-25 l0 -24 25 24 c13 14 35 25 49 25 13 0 31 6 38 13 10 9 86 12 301 14 159 1
290 3 292 5 2 2 6 26 9 53 4 28 15 109 26 180 19 128 50 403 50 447 0 19 2 20
10 8 7 -10 8 -4 4 20 -3 19 6 136 20 259 15 123 24 226 21 230 -9 8 -131 9
-260 2z m-111 -212 c-10 -16 -24 -9 -24 12 0 18 2 19 15 9 8 -7 12 -16 9 -21z
m176 -339 c0 -5 -4 -10 -9 -10 -6 0 -13 5 -16 10 -3 6 1 10 9 10 9 0 16 -4 16
-10z m-160 -246 c0 -8 -5 -12 -10 -9 -6 4 -8 11 -5 16 9 14 15 11 15 -7z m-3
-310 c-9 -9 -28 6 -21 18 4 6 10 6 17 -1 6 -6 8 -13 4 -17z"/>
<path d="M1775 5993 c-19 -13 -3 -28 21 -19 9 3 12 1 9 -4 -3 -6 0 -10 7 -10
7 0 23 -3 36 -6 22 -6 22 -6 5 24 -18 31 -48 37 -78 15z"/>
<path d="M1690 5420 c-18 -12 -2 -12 25 0 13 6 15 9 5 9 -8 0 -22 -4 -30 -9z"/>
<path d="M4995 5270 c3 -5 12 -10 20 -10 8 0 17 5 20 10 4 6 -5 10 -20 10 -15
0 -24 -4 -20 -10z"/>
<path d="M5065 5230 c3 -5 8 -10 11 -10 2 0 4 5 4 10 0 6 -5 10 -11 10 -5 0
-7 -4 -4 -10z"/>
<path d="M2038 5223 c6 -2 18 -2 25 0 6 3 1 5 -13 5 -14 0 -19 -2 -12 -5z"/>
<path d="M1869 5180 c-76 -26 -159 -65 -159 -75 0 -2 28 9 63 25 34 16 100 40
147 54 47 14 74 25 60 25 -14 0 -64 -13 -111 -29z"/>
<path d="M1550 5130 c0 -5 5 -10 11 -10 5 0 7 5 4 10 -3 6 -8 10 -11 10 -2 0
-4 -4 -4 -10z"/>
<path d="M1571 5074 c0 -11 3 -14 6 -6 3 7 2 16 -1 19 -3 4 -6 -2 -5 -13z"/>
<path d="M1625 5029 c-4 -6 -5 -12 -2 -15 2 -3 7 2 10 11 7 17 1 20 -8 4z"/>
<path d="M1601 4984 c0 -11 3 -14 6 -6 3 7 2 16 -1 19 -3 4 -6 -2 -5 -13z"/>
<path d="M3723 4895 c0 -9 4 -14 9 -13 5 2 10 8 10 13 0 5 -5 11 -10 13 -5 1
-9 -4 -9 -13z"/>
<path d="M1625 4880 c10 -35 25 -49 25 -23 0 11 -7 27 -16 34 -15 12 -16 11
-9 -11z"/>
<path d="M1660 4820 c0 -5 5 -10 11 -10 5 0 7 5 4 10 -3 6 -8 10 -11 10 -2 0
-4 -4 -4 -10z"/>
<path d="M3640 4789 c0 -5 5 -7 10 -4 6 3 10 8 10 11 0 2 -4 4 -10 4 -5 0 -10
-5 -10 -11z"/>
<path d="M1700 4780 c8 -5 20 -10 25 -10 6 0 3 5 -5 10 -8 5 -19 10 -25 10 -5
0 -3 -5 5 -10z"/>
<path d="M1700 4739 c0 -5 5 -7 10 -4 6 3 10 8 10 11 0 2 -4 4 -10 4 -5 0 -10
-5 -10 -11z"/>
<path d="M1728 4726 c-13 -9 -14 -16 -5 -31 10 -18 11 -18 18 10 10 35 9 37
-13 21z"/>
<path d="M9282 4697 c1 -52 13 -70 22 -33 3 13 -1 37 -9 52 l-14 28 1 -47z"/>
<path d="M3535 4690 c-3 -5 -1 -10 4 -10 6 0 11 5 11 10 0 6 -2 10 -4 10 -3 0
-8 -4 -11 -10z"/>
<path d="M1770 4671 c0 -5 5 -13 10 -16 6 -3 10 -2 10 4 0 5 -4 13 -10 16 -5
3 -10 2 -10 -4z"/>
<path d="M2225 4640 c-3 -5 -1 -10 4 -10 6 0 11 5 11 10 0 6 -2 10 -4 10 -3 0
-8 -4 -11 -10z"/>
<path d="M1818 4633 c10 -4 10 -8 1 -19 -7 -8 -9 -18 -5 -21 4 -4 12 -1 17 7
8 12 9 10 5 -6 -5 -16 3 -26 33 -46 36 -24 40 -24 44 -8 4 14 0 17 -12 13 -9
-4 -13 -3 -9 1 7 9 -65 87 -79 85 -4 0 -2 -3 5 -6z"/>
<path d="M7015 4629 c-4 -6 -5 -12 -2 -15 2 -3 7 2 10 11 7 17 1 20 -8 4z"/>
<path d="M7027 4603 c-4 -6 0 -13 8 -17 8 -3 17 0 21 6 4 6 3 8 -4 4 -5 -3
-12 -1 -14 6 -3 8 -6 9 -11 1z"/>
<path d="M7036 4558 c3 -5 10 -6 15 -3 13 9 11 12 -6 12 -8 0 -12 -4 -9 -9z"/>
<path d="M9448 4383 c6 -2 18 -2 25 0 6 3 1 5 -13 5 -14 0 -19 -2 -12 -5z"/>
<path d="M2101 4275 c0 -5 6 -19 14 -29 8 -11 15 -15 15 -10 0 6 -7 19 -15 30
-8 10 -14 15 -14 9z"/>
<path d="M7410 4056 c0 -8 4 -17 9 -20 5 -4 7 3 4 14 -6 23 -13 26 -13 6z"/>
<path d="M9156 3763 c-6 -14 -5 -15 5 -6 7 7 10 15 7 18 -3 3 -9 -2 -12 -12z"/>
<path d="M9184 3755 c-3 -8 -4 -20 -2 -27 3 -7 7 -1 10 15 6 29 1 36 -8 12z"/>
<path d="M9209 3758 c0 -2 -2 -13 -5 -26 -4 -21 -3 -22 12 -8 8 9 21 16 27 16
7 0 6 4 -3 10 -14 9 -29 13 -31 8z"/>
<path d="M9110 3695 c-9 -10 -9 -15 -1 -15 6 0 11 5 11 11 0 5 5 7 12 3 7 -4
8 -3 4 4 -9 15 -11 15 -26 -3z"/>
<path d="M9160 3689 c0 -5 5 -7 10 -4 6 3 10 8 10 11 0 2 -4 4 -10 4 -5 0 -10
-5 -10 -11z"/>
<path d="M9058 3653 c-10 -2 -18 -8 -18 -13 0 -4 9 -6 20 -3 11 3 20 9 20 14
0 5 -1 8 -2 8 -2 -1 -11 -3 -20 -6z"/>
<path d="M9130 3649 c0 -5 5 -7 10 -4 6 3 10 8 10 11 0 2 -4 4 -10 4 -5 0 -10
-5 -10 -11z"/>
<path d="M7594 3228 l-29 -33 33 29 c17 17 32 31 32 33 0 8 -8 1 -36 -29z"/>
<path d="M6954 2988 c-4 -7 -4 -10 1 -6 4 4 23 -16 43 -45 19 -29 47 -66 61
-84 14 -17 36 -44 49 -60 22 -26 23 -26 12 -3 -7 14 -38 57 -70 95 -31 39 -60
80 -64 93 -8 24 -21 29 -32 10z"/>
<path d="M7161 2728 c14 -19 25 -26 27 -19 2 7 -5 21 -16 32 -32 29 -36 23
-11 -13z"/>
<path d="M7232 2655 c12 -26 42 -33 54 -13 5 8 2 9 -9 5 -11 -4 -20 1 -27 13
-16 29 -32 25 -18 -5z"/>
<path d="M7276 2612 c-3 -6 3 -12 15 -15 12 -3 19 -1 16 6 -5 15 -24 20 -31 9z"/>
<path d="M7925 2530 c-3 -6 1 -7 9 -4 18 7 21 14 7 14 -6 0 -13 -4 -16 -10z"/>
<path d="M7885 2510 c-3 -5 -2 -10 4 -10 5 0 13 5 16 10 3 6 2 10 -4 10 -5 0
-13 -4 -16 -10z"/>
<path d="M7738 2443 c7 -3 16 -2 19 1 4 3 -2 6 -13 5 -11 0 -14 -3 -6 -6z"/>
<path d="M7460 2230 c8 -5 20 -10 25 -10 6 0 3 5 -5 10 -8 5 -19 10 -25 10 -5
0 -3 -5 5 -10z"/>
<path d="M6300 2006 c0 -2 7 -7 16 -10 8 -3 12 -2 9 4 -6 10 -25 14 -25 6z"/>
<path d="M6258 1693 c7 -3 16 -2 19 1 4 3 -2 6 -13 5 -11 0 -14 -3 -6 -6z"/>
<path d="M8303 1002 c-1 -22 0 -24 9 -8 6 10 6 22 2 26 -5 5 -10 -3 -11 -18z"/>
<path d="M8742 845 c-16 -19 -3 -19 22 0 14 11 16 15 5 15 -8 -1 -20 -7 -27
-15z"/>
</g>
</svg>
